<svg width="100" height="100" viewBox="0 0 100 100" fill="none" xmlns="http://www.w3.org/2000/svg">
<g clip-path="url(#clip0_50_2)">
<circle cx="50" cy="50" r="50" fill="#808080" fill-opacity="0.2"/>
<g clip-path="url(#clip1_50_2)">
<g filter="url(#filter0_d_50_2)">
<path d="M50.4028 84.96C45.7948 84.96 41.8268 84.192 38.4988 82.656C35.2348 81.12 32.7068 78.912 30.9148 76.032C29.1228 73.152 28.1948 69.728 28.1308 65.76H36.7708C36.7708 69.28 37.9548 72.064 40.3228 74.112C42.7548 76.16 46.1148 77.184 50.4028 77.184C54.4348 77.184 57.5708 76.192 59.8108 74.208C62.1148 72.224 63.2668 69.472 63.2668 65.952C63.2668 63.136 62.4988 60.672 60.9628 58.56C59.4908 56.448 57.3468 54.976 54.5308 54.144L45.0268 51.168C40.2268 49.696 36.5148 47.232 33.8907 43.776C31.3308 40.32 30.0508 36.256 30.0508 31.584C30.0508 27.808 30.8828 24.544 32.5468 21.792C34.2748 18.976 36.6748 16.8 39.7468 15.264C42.8188 13.664 46.4348 12.864 50.5948 12.864C56.7388 12.864 61.6668 14.592 65.3788 18.048C69.0908 21.44 70.9788 25.984 71.0428 31.68H62.4028C62.4028 28.224 61.3468 25.536 59.2348 23.616C57.1868 21.632 54.2748 20.64 50.4988 20.64C46.7868 20.64 43.8748 21.536 41.7628 23.328C39.7148 25.12 38.6908 27.616 38.6908 30.816C38.6908 33.696 39.4588 36.192 40.9948 38.304C42.5308 40.416 44.7388 41.92 47.6188 42.816L57.2188 45.888C61.8908 47.36 65.5068 49.856 68.0668 53.376C70.6268 56.896 71.9067 61.024 71.9067 65.76C71.9067 69.6 71.0107 72.96 69.2188 75.84C67.4268 78.72 64.8988 80.96 61.6348 82.56C58.4348 84.16 54.6908 84.96 50.4028 84.96Z" fill="white"/>
</g>
</g>
</g>
<defs>
<filter id="filter0_d_50_2" x="24.1308" y="12.864" width="51.776" height="80.096" filterUnits="userSpaceOnUse" color-interpolation-filters="sRGB">
<feFlood flood-opacity="0" result="BackgroundImageFix"/>
<feColorMatrix in="SourceAlpha" type="matrix" values="0 0 0 0 0 0 0 0 0 0 0 0 0 0 0 0 0 0 127 0" result="hardAlpha"/>
<feOffset dy="4"/>
<feGaussianBlur stdDeviation="2"/>
<feComposite in2="hardAlpha" operator="out"/>
<feColorMatrix type="matrix" values="0 0 0 0 0 0 0 0 0 0 0 0 0 0 0 0 0 0 0.9 0"/>
<feBlend mode="normal" in2="BackgroundImageFix" result="effect1_dropShadow_50_2"/>
<feBlend mode="normal" in="SourceGraphic" in2="effect1_dropShadow_50_2" result="shape"/>
</filter>
<clipPath id="clip0_50_2">
<rect width="100" height="100" fill="white"/>
</clipPath>
<clipPath id="clip1_50_2">
<rect width="58" height="127" fill="white" transform="translate(21 -14)"/>
</clipPath>
</defs>
</svg>
